<?xml version="1.0" encoding="utf-8"?>
<!-- Generator: Adobe Illustrator 17.0.0, SVG Export Plug-In . SVG Version: 6.00 Build 0)  -->
<!DOCTYPE svg PUBLIC "-//W3C//DTD SVG 1.1//EN" "http://www.w3.org/Graphics/SVG/1.1/DTD/svg11.dtd">
<svg version="1.1" id="Camada_1" xmlns="http://www.w3.org/2000/svg" xmlns:xlink="http://www.w3.org/1999/xlink" x="0px" y="0px"
	 width="33.181px" height="49.728px" viewBox="0 0 33.181 49.728" enable-background="new 0 0 33.181 49.728" xml:space="preserve">
<path fill="#FFFFFF" d="M12.745,13.275l0.094,0.158l1.794,3.588c0.315,0.63,0.63,1.291,0.913,1.952
	c0.284,0.661,0.535,1.385,0.724,2.109c0.095,0.409,0.189,0.818,0.189,1.228c0,0.189-0.032,0.346-0.032,0.535l-0.094,0.315
	c-0.063,0.158-0.158,0.347-0.283,0.504c-0.252,0.378-0.535,0.724-0.881,1.039c-0.472,0.441-1.008,0.85-1.574,1.196
	c-0.441,0.283-0.944,0.535-1.448,0.756c-0.567,0.22-1.133,0.409-1.763,0.504c-0.441,0.063-0.913,0.095-1.385,0.032
	c-0.378-0.063-0.724-0.126-1.07-0.252c-0.535-0.189-0.976-0.504-1.354-0.881c-0.472-0.472-0.819-1.039-1.039-1.668
	c-0.252-0.567-0.378-1.196-0.472-1.826C4.97,21.9,4.97,21.239,5.033,20.61c0.032-0.378,0.094-0.724,0.22-1.07
	c0.031-0.126,0.094-0.221,0.157-0.346c0.095-0.189,0.252-0.346,0.472-0.409c0.189-0.063,0.378-0.094,0.567-0.126
	c0.378,0,0.756,0.032,1.102,0.095c0.315,0.032,0.598,0.126,0.881,0.22c0.252,0.063,0.504,0.189,0.724,0.315
	c0.126,0.063,0.22,0.126,0.315,0.22c0.031,0.032,0.031,0.063,0.063,0.063c0.031,0.095,0,0.189-0.063,0.252l-0.126,0.094
	c-0.189,0.095-0.315,0.22-0.409,0.409c-0.094,0.22-0.189,0.441-0.22,0.661c-0.094,0.315-0.094,0.661-0.094,0.976
	c0,0.283,0,0.598,0.063,0.881c0.031,0.189,0.094,0.347,0.158,0.535c0.063,0.252,0.157,0.472,0.283,0.661
	c0.126,0.252,0.315,0.472,0.567,0.598c0.095,0.063,0.189,0.095,0.252,0.095c0.346,0.095,0.661,0.126,1.007,0.063
	c0.378-0.063,0.724-0.158,1.07-0.346c0.252-0.095,0.472-0.252,0.661-0.441c0.346-0.346,0.472-0.787,0.409-1.291
	c-0.063-0.472-0.189-0.944-0.378-1.385c-0.22-0.661-0.535-1.259-0.819-1.889c-0.409-0.787-0.85-1.574-1.291-2.361l-1.039-1.857
	l-0.661-1.228c-0.189-0.346-0.315-0.724-0.472-1.102c-0.158-0.472-0.346-0.944-0.472-1.448C7.74,10.789,7.583,10.096,7.52,9.404
	C7.489,9.026,7.457,8.617,7.489,8.207c0-0.283,0.031-0.535,0.063-0.818C7.646,6.854,7.74,6.35,7.961,5.847l0.157-0.378
	c0.095-0.221,0.189-0.441,0.315-0.63c0.22-0.252,0.472-0.472,0.756-0.661c0.252-0.157,0.535-0.283,0.818-0.409
	c0.441-0.158,0.882-0.252,1.322-0.346c0.441-0.063,0.85-0.126,1.291-0.157h0.095c0.409-0.031,0.85-0.031,1.259-0.031
	s0.818,0,1.228,0.031l1.039,0.094l1.417,0.189c0.567,0.094,1.165,0.252,1.7,0.441c0.221,0.063,0.441,0.158,0.63,0.252
	c0.283,0.126,0.472,0.347,0.535,0.661c0.063,0.252,0.126,0.504,0.126,0.755c0,0.378,0,0.756-0.031,1.133L20.52,7.672l-0.189,1.133
	c-0.126,0.63-0.284,1.291-0.472,1.889c-0.157,0.598-0.346,1.133-0.598,1.7l-0.189,0.347c-0.126,0.283-0.378,0.409-0.692,0.409
	c-0.252,0-0.472,0-0.693-0.031c-0.378-0.063-0.724-0.189-1.039-0.283l-0.756-0.283c-0.126-0.063-0.252-0.095-0.409-0.126
	c-0.189-0.063-0.346-0.189-0.472-0.347c-0.158-0.189-0.221-0.472-0.031-0.724l0.063-0.095c0.346-0.409,0.567-0.882,0.693-1.417
	c0.126-0.598,0.157-1.165,0.095-1.763c0-0.221-0.063-0.409-0.095-0.598c-0.094-0.315-0.221-0.598-0.409-0.85
	c-0.252-0.315-0.567-0.598-0.944-0.787c-0.346-0.221-0.756-0.378-1.165-0.472c-0.315-0.063-0.63-0.095-0.913-0.032
	c-0.189,0.032-0.346,0.063-0.504,0.126c-0.283,0.157-0.504,0.378-0.661,0.661c-0.063,0.157-0.095,0.315-0.126,0.472
	c-0.063,0.22-0.094,0.441-0.094,0.661c-0.031,0.598,0.063,1.196,0.22,1.794c0.126,0.567,0.315,1.133,0.535,1.7
	c0.252,0.724,0.567,1.417,0.913,2.109c0,0.063,0.031,0.094,0.063,0.158"/>
<path fill="#FFFFFF" d="M21.555,27.436c0,0-1.301-0.208-1.671-0.251c-0.37-0.043-0.237-0.224-0.237-0.224l1.224-8.556
	c0,0,0.005-0.087,0.06,0.058c0.121,0.314,0.734,8.648,0.737,8.788C21.672,27.392,21.555,27.436,21.555,27.436 M26.374,32.594
	c-0.215-2.846-1.159-12.26-1.159-12.26s-0.561-4.493-4.061-6.576c-0.551-0.328-2.212-0.092-2.801,0.294
	c-0.125,0.082-0.719,0.883-1.595,13.502c0,0,0.001,0.178-0.237,0.142c0,0-1.17-0.118-1.295,0.069
	c-0.125,0.187-0.599,1.375-0.32,1.503c0.278,0.128,1.625,0.109,1.625,0.109s0.095,0.035,0.083,0.175
	c-0.012,0.14-0.253,3.754-0.253,3.754s-0.151,0.725,0.757,1.073c0.908,0.347,1.532,0.289,1.532,0.289s0.536-2.914,0.844-5.177
	c0.017-0.128,0.125-0.142,0.125-0.142l1.989-0.024c0,0,0.199-0.031,0.21,0.07c0.012,0.101,0.472,5.398,0.472,5.398
	s-0.009,0.741,1.229,0.851c1.238,0.11,2.869-0.342,2.869-0.342S26.589,35.44,26.374,32.594"/>
</svg>
