<?xml version="1.0" encoding="utf-8"?>
<!-- Generator: Adobe Illustrator 17.0.0, SVG Export Plug-In . SVG Version: 6.00 Build 0)  -->
<!DOCTYPE svg PUBLIC "-//W3C//DTD SVG 1.1//EN" "http://www.w3.org/Graphics/SVG/1.1/DTD/svg11.dtd">
<svg version="1.1" id="Camada_1" xmlns="http://www.w3.org/2000/svg" xmlns:xlink="http://www.w3.org/1999/xlink" x="0px" y="0px"
	 width="562.238px" height="124.926px" viewBox="0 0 562.238 124.926" enable-background="new 0 0 562.238 124.926"
	 xml:space="preserve">
<g>
	<path fill="#E69C9C" d="M-209.701-7.465l-0.632,0.65l3.649,3.757l0.632-0.651L-209.701-7.465z M-205.42-3.058l-0.632,0.65
		l3.649,3.757l0.316-0.325l0.316-0.325L-205.42-3.058z"/>
	<polygon fill="#E69C9C" points="-202.403,-7.466 -206.052,-3.708 -206.684,-3.058 -210.333,0.698 -210.017,1.024 -209.701,1.349 
		-206.052,-2.407 -205.42,-3.058 -201.771,-6.815 	"/>
</g>
<g>
	<circle fill="#EA2283" cx="59.644" cy="60.624" r="59.644"/>
	<circle fill="#FFFFFF" cx="59.644" cy="60.624" r="51.067"/>
	<g>
		<path fill="#58595B" d="M26.783,73.891c1.2,0.056,2.159,0.561,2.817,1.195l0.124,0.119l-1.367,1.355l-0.128-0.118
			c-0.472-0.435-1.019-0.646-1.666-0.646c-0.658,0-1.202,0.195-1.659,0.595c-0.465,0.407-0.692,0.878-0.692,1.436
			c0,0.564,0.227,1.035,0.691,1.435c0.461,0.397,1.005,0.591,1.66,0.591c0.657,0,1.205-0.212,1.67-0.645l0.128-0.119l1.366,1.354
			l-0.121,0.119c-0.372,0.369-0.812,0.663-1.334,0.879c-0.53,0.213-1.102,0.318-1.714,0.318c-1.208-0.003-2.252-0.388-3.108-1.148
			c-0.804-0.769-1.21-1.705-1.21-2.789c0-1.08,0.406-2.018,1.209-2.793c0.862-0.772,1.906-1.163,3.109-1.163h0.232L26.783,73.891z"
			/>
		<path fill="#58595B" d="M30.4,81.707l-0.005-7.777h2.844c0.464,0,0.916,0.066,1.353,0.197c0.381,0.132,0.715,0.336,1.002,0.608
			c0.491,0.47,0.802,0.934,0.802,1.807v0.194c0,0.537-0.177,1.045-0.523,1.514c-0.248,0.332-0.455,0.502-0.819,0.668l1.869,2.789
			h-2.312l-2.311-3.039v3.039H30.4z M34.42,76.703c0-0.239-0.1-0.445-0.305-0.629c-0.202-0.166-0.634-0.259-0.989-0.259h-0.83v1.809
			h0.705v0.005h0.413C33.934,77.63,34.42,77.239,34.42,76.703z"/>
		<path fill="#58595B" d="M37.399,81.707v-7.777h1.901v7.777H37.399z"/>
		<path fill="#58595B" d="M39.974,81.707l3.751-7.768h0.449l3.756,7.768h-2.064l-0.577-1.182h-2.681l-0.577,1.182H39.974z
			 M43.449,78.976h1.002l-0.498-1.052L43.449,78.976z"/>
		<path fill="#58595B" d="M47.103,73.929h6.07v1.886h-1.983l0.073,5.891h-2.147l-0.023-5.891h-1.989V73.929z"/>
		<path fill="#58595B" d="M53.842,81.707v-7.777h1.901v7.777H53.842z"/>
		<path fill="#58595B" d="M64.3,73.929l-3.747,7.777h-0.406l-3.733-7.777h2.025l1.906,4.005l1.911-4.005H64.3z"/>
		<path fill="#58595B" d="M64.967,81.707v-7.777h1.901v7.777H64.967z"/>
		<path fill="#58595B" d="M70.239,73.934v-0.005h0.169c1.374,0,2.521,0.466,3.299,1.144c0.73,0.702,1.091,1.629,1.091,2.752
			c0,1.123-0.362,2.047-1.092,2.743c-0.963,0.757-2.192,1.138-3.637,1.138h-2.239v-7.773H70.239z M70.403,75.815h-0.501l0.018,3.995
			h0.21c1.541,0,2.512-0.682,2.688-1.998C72.818,76.519,71.763,75.815,70.403,75.815z"/>
		<path fill="#58595B" d="M74.497,81.707l3.751-7.768h0.449l3.756,7.768H80.39l-0.577-1.182h-2.681l-0.577,1.182H74.497z
			 M77.973,78.976h1.002l-0.498-1.052L77.973,78.976z"/>
		<path fill="#58595B" d="M85.529,73.934v-0.005h0.169c1.374,0,2.521,0.466,3.299,1.144c0.73,0.702,1.091,1.629,1.091,2.752
			c0,1.123-0.362,2.047-1.092,2.743c-0.963,0.757-2.192,1.138-3.637,1.138h-2.239v-7.773H85.529z M85.692,75.815h-0.501l0.018,3.995
			h0.21c1.541,0,2.512-0.682,2.688-1.998C88.108,76.519,87.053,75.815,85.692,75.815z"/>
		<path fill="#58595B" d="M90.756,73.91h5.366v1.896h-3.374v1.062h2.591v1.896h-2.591v1.061h3.374v1.891h-5.366V73.91z"/>
	</g>
	<g>
		<path fill="#58595B" d="M41.681,61.888l3.468-6.047l0.752-1.319l-1.52-0.107c-1.012-0.072-1.934-0.312-2.762-0.722
			c-0.859-0.409-1.637-0.987-2.333-1.734c-0.696-0.737-1.217-1.55-1.565-2.44c-0.338-0.859-0.507-1.801-0.507-2.824
			c0-1.085,0.184-2.072,0.553-2.962c0.368-0.911,0.936-1.749,1.703-2.517c0.737-0.736,1.571-1.304,2.502-1.703
			c0.92-0.379,1.908-0.568,2.962-0.568c1.053,0,2.046,0.189,2.977,0.568c0.9,0.388,1.735,0.961,2.502,1.719
			c0.747,0.737,1.319,1.571,1.719,2.502c0.379,0.931,0.568,1.918,0.568,2.962c0,0.624-0.072,1.227-0.215,1.811
			c-0.144,0.583-0.358,1.151-0.645,1.704c-0.061,0.102-0.102,0.174-0.122,0.215c-0.021,0.04-0.044,0.089-0.069,0.145
			c-0.026,0.056-0.053,0.121-0.084,0.192h-0.015c-0.03,0.062-0.056,0.115-0.077,0.161c-0.02,0.046-0.036,0.085-0.046,0.115
			c-0.03,0.031-0.046,0.056-0.046,0.077l-0.046,0.077l-6.169,10.697H41.681z M44.949,51.36c0.645,0,1.238-0.113,1.78-0.338
			c0.532-0.214,1.044-0.558,1.535-1.028c0.429-0.45,0.773-0.957,1.028-1.52c0.225-0.552,0.338-1.151,0.338-1.795
			c0-0.635-0.113-1.233-0.338-1.796c-0.225-0.532-0.568-1.039-1.028-1.52c-0.45-0.439-0.957-0.787-1.52-1.043
			c-0.583-0.235-1.186-0.353-1.811-0.353c-0.635,0-1.238,0.118-1.811,0.353c-0.563,0.235-1.064,0.583-1.504,1.043
			c-0.46,0.461-0.803,0.967-1.028,1.52c-0.225,0.563-0.338,1.161-0.338,1.796c0,0.654,0.118,1.253,0.353,1.795
			c0.225,0.563,0.568,1.069,1.028,1.52c0.481,0.481,0.988,0.824,1.52,1.028c0.532,0.225,1.125,0.338,1.78,0.338H44.949z"/>
		<path fill="#58595B" d="M58.691,61.888l3.468-6.047l0.752-1.319l-1.52-0.107c-1.012-0.072-1.934-0.312-2.762-0.722
			c-0.859-0.409-1.637-0.987-2.333-1.734c-0.696-0.737-1.217-1.55-1.565-2.44c-0.338-0.859-0.507-1.801-0.507-2.824
			c0-1.085,0.184-2.072,0.553-2.962c0.368-0.911,0.936-1.749,1.703-2.517c0.737-0.736,1.571-1.304,2.502-1.703
			c0.92-0.379,1.908-0.568,2.962-0.568c1.053,0,2.046,0.189,2.977,0.568c0.9,0.388,1.735,0.961,2.502,1.719
			c0.747,0.737,1.319,1.571,1.719,2.502c0.379,0.931,0.568,1.918,0.568,2.962c0,0.624-0.072,1.227-0.215,1.811
			c-0.144,0.583-0.358,1.151-0.645,1.704c-0.061,0.102-0.102,0.174-0.122,0.215c-0.021,0.04-0.044,0.089-0.069,0.145
			c-0.026,0.056-0.053,0.121-0.084,0.192h-0.015c-0.03,0.062-0.056,0.115-0.077,0.161c-0.02,0.046-0.036,0.085-0.046,0.115
			c-0.03,0.031-0.046,0.056-0.046,0.077l-0.046,0.077l-6.169,10.697H58.691z M61.959,51.36c0.645,0,1.238-0.113,1.78-0.338
			c0.532-0.214,1.044-0.558,1.535-1.028c0.429-0.45,0.773-0.957,1.028-1.52c0.225-0.552,0.338-1.151,0.338-1.795
			c0-0.635-0.113-1.233-0.338-1.796c-0.225-0.532-0.568-1.039-1.028-1.52c-0.45-0.439-0.957-0.787-1.52-1.043
			c-0.583-0.235-1.186-0.353-1.811-0.353c-0.635,0-1.238,0.118-1.811,0.353c-0.563,0.235-1.064,0.583-1.504,1.043
			c-0.46,0.461-0.803,0.967-1.028,1.52c-0.225,0.563-0.338,1.161-0.338,1.796c0,0.654,0.118,1.253,0.353,1.795
			c0.225,0.563,0.568,1.069,1.028,1.52c0.481,0.481,0.988,0.824,1.52,1.028c0.532,0.225,1.125,0.338,1.78,0.338H61.959z"/>
		<path fill="#58595B" d="M76.943,39.16c0.481,0.205,0.936,0.517,1.366,0.936c0.42,0.429,0.732,0.885,0.936,1.366
			c0.204,0.47,0.306,1.008,0.306,1.611c0,0.624-0.102,1.167-0.306,1.627c-0.195,0.481-0.507,0.941-0.936,1.381
			c-0.429,0.419-0.885,0.732-1.366,0.936c-0.511,0.205-1.049,0.307-1.612,0.307c-0.583,0-1.13-0.102-1.642-0.307
			c-0.501-0.215-0.961-0.527-1.381-0.936c-0.429-0.44-0.736-0.9-0.92-1.381c-0.205-0.46-0.307-1.003-0.307-1.627
			c0-0.603,0.102-1.141,0.307-1.611c0.194-0.491,0.501-0.947,0.92-1.366c0.44-0.43,0.9-0.742,1.381-0.936
			c0.501-0.215,1.049-0.322,1.642-0.322C75.915,38.838,76.452,38.945,76.943,39.16z M88.377,38.822L73.659,62.134h-1.995
			l14.717-23.311H88.377z M75.293,40.449h-0.008c-0.624,0.021-1.187,0.251-1.688,0.691c-0.573,0.522-0.859,1.146-0.859,1.872
			c0,0.031,0,0.041,0,0.031c0-0.01,0,0,0,0.03c0.02,0.737,0.271,1.346,0.752,1.827c0.501,0.501,1.115,0.752,1.841,0.752
			c0.676,0,1.279-0.256,1.811-0.767c0.481-0.501,0.732-1.105,0.752-1.811c0-0.03,0.003-0.043,0.008-0.038
			c0.005,0.005,0.008-0.002,0.008-0.023c0-0.685-0.286-1.299-0.859-1.841c-0.522-0.461-1.084-0.701-1.688-0.722h-0.008h-0.008h-0.03
			H75.293z M88.315,52.803c0.583,0.256,1.105,0.619,1.565,1.09c0.471,0.471,0.829,0.988,1.074,1.55
			c0.236,0.584,0.353,1.203,0.353,1.857c0,0.664-0.118,1.284-0.353,1.857c-0.235,0.562-0.593,1.084-1.074,1.565
			c-0.47,0.47-0.992,0.828-1.565,1.074c-0.542,0.225-1.156,0.337-1.841,0.337c-0.696,0-1.32-0.112-1.872-0.337
			c-0.583-0.246-1.105-0.604-1.565-1.074c-0.471-0.461-0.824-0.982-1.059-1.565c-0.235-0.573-0.353-1.192-0.353-1.857
			c0-0.655,0.118-1.274,0.353-1.857c0.225-0.552,0.578-1.069,1.059-1.55c0.46-0.47,0.988-0.834,1.581-1.09
			c0.563-0.235,1.182-0.353,1.857-0.353C87.118,52.45,87.732,52.568,88.315,52.803z M84.064,54.906
			c-0.614,0.603-0.921,1.401-0.921,2.394c0,0.982,0.307,1.78,0.921,2.394c0.613,0.614,1.412,0.921,2.394,0.921
			c0.962,0,1.76-0.307,2.394-0.921c0.614-0.624,0.92-1.422,0.92-2.394c0-0.962-0.306-1.76-0.92-2.394
			c-0.634-0.614-1.432-0.921-2.394-0.921C85.476,53.985,84.678,54.292,84.064,54.906z"/>
	</g>
</g>
<g>
	<circle fill="#EA2283" cx="205.4" cy="61.477" r="59.772"/>
	<path fill="#F389A6" d="M205.4,61.477L205.4,61.477L205.4,61.477l42.265-42.265c8.102,8.102,13.392,17.952,15.87,28.336
		L205.4,61.477z"/>
	<circle fill="#FFFFFF" cx="205.4" cy="61.477" r="51.177"/>
	<g>
		<path fill="#58595B" d="M184.612,64.603l3.473-6.054l0.753-1.321l-1.521-0.107c-1.014-0.072-1.936-0.312-2.765-0.722
			c-0.86-0.41-1.639-0.989-2.336-1.736c-0.697-0.738-1.219-1.552-1.567-2.443c-0.338-0.86-0.507-1.803-0.507-2.827
			c0-1.086,0.184-2.075,0.553-2.966c0.369-0.912,0.938-1.752,1.705-2.52c0.738-0.738,1.572-1.306,2.505-1.705
			c0.922-0.379,1.91-0.568,2.966-0.568s2.049,0.189,2.981,0.568c0.901,0.39,1.736,0.963,2.504,1.721
			c0.748,0.738,1.321,1.572,1.721,2.505c0.379,0.932,0.569,1.92,0.569,2.966c0,0.625-0.072,1.229-0.216,1.813
			c-0.143,0.584-0.358,1.153-0.645,1.705c-0.062,0.103-0.103,0.174-0.123,0.215c-0.021,0.041-0.044,0.09-0.069,0.146
			c-0.026,0.056-0.053,0.121-0.084,0.192h-0.015c-0.031,0.062-0.056,0.116-0.077,0.162c-0.021,0.046-0.036,0.084-0.046,0.115
			c-0.031,0.031-0.046,0.056-0.046,0.077l-0.046,0.077l-6.177,10.71H184.612z M187.885,54.063c0.645,0,1.239-0.113,1.782-0.338
			c0.533-0.215,1.045-0.558,1.537-1.029c0.43-0.451,0.773-0.958,1.029-1.521c0.226-0.553,0.338-1.153,0.338-1.798
			c0-0.635-0.113-1.235-0.338-1.798c-0.225-0.533-0.568-1.039-1.029-1.521c-0.451-0.441-0.958-0.789-1.521-1.045
			c-0.584-0.236-1.188-0.353-1.813-0.353c-0.635,0-1.239,0.118-1.813,0.353c-0.564,0.236-1.065,0.584-1.506,1.045
			c-0.461,0.461-0.804,0.968-1.03,1.521c-0.225,0.564-0.338,1.163-0.338,1.798c0,0.656,0.118,1.255,0.353,1.798
			c0.226,0.564,0.568,1.071,1.03,1.521c0.482,0.482,0.988,0.824,1.521,1.029c0.533,0.226,1.127,0.338,1.783,0.338H187.885z"/>
		<path fill="#58595B" d="M209.386,42.477c1.096,0.584,2.023,1.413,2.781,2.489c0.748,1.045,1.331,2.289,1.752,3.733
			c0.43,1.455,0.645,2.945,0.645,4.472c0,1.536-0.215,3.037-0.645,4.502c-0.431,1.444-1.014,2.684-1.752,3.719
			c-0.748,1.086-1.675,1.92-2.781,2.505c-1.086,0.563-2.258,0.845-3.518,0.845c-1.27,0-2.443-0.282-3.518-0.845
			c-1.086-0.574-2.013-1.409-2.781-2.505c-0.748-1.034-1.331-2.274-1.751-3.719c-0.42-1.424-0.63-2.925-0.63-4.502
			c0-1.557,0.21-3.048,0.63-4.472c0.41-1.444,0.993-2.689,1.751-3.733c0.768-1.096,1.695-1.926,2.781-2.489
			c1.045-0.564,2.217-0.845,3.518-0.845C207.159,41.632,208.332,41.914,209.386,42.477z M208.004,45.243
			c-0.645-0.348-1.362-0.522-2.151-0.522c-0.789,0-1.501,0.174-2.135,0.522c-0.666,0.349-1.229,0.845-1.691,1.491
			c-0.563,0.789-1.004,1.767-1.321,2.935c-0.318,1.147-0.476,2.315-0.476,3.504c0,1.208,0.159,2.377,0.476,3.503
			c0.318,1.178,0.758,2.157,1.321,2.935v0.015c0.502,0.676,1.061,1.173,1.675,1.491c0.645,0.349,1.362,0.523,2.151,0.523
			c0.789,0,1.506-0.174,2.151-0.523c0.635-0.328,1.193-0.824,1.675-1.491v-0.015c0.574-0.809,1.019-1.782,1.337-2.919
			c0.318-1.137,0.476-2.31,0.476-3.518c0-1.188-0.159-2.356-0.476-3.504c-0.318-1.137-0.763-2.115-1.337-2.935
			C209.208,46.088,208.649,45.591,208.004,45.243z"/>
		<path fill="#58595B" d="M221.824,41.847c0.482,0.205,0.938,0.517,1.368,0.937c0.42,0.431,0.732,0.887,0.938,1.368
			c0.204,0.472,0.307,1.009,0.307,1.613c0,0.625-0.103,1.168-0.307,1.629c-0.195,0.482-0.507,0.942-0.938,1.383
			c-0.43,0.42-0.886,0.732-1.368,0.937c-0.512,0.205-1.05,0.307-1.613,0.307c-0.584,0-1.132-0.102-1.644-0.307
			c-0.502-0.215-0.963-0.527-1.383-0.937c-0.43-0.441-0.738-0.901-0.922-1.383c-0.205-0.461-0.308-1.004-0.308-1.629
			c0-0.605,0.102-1.142,0.308-1.613c0.194-0.492,0.502-0.947,0.922-1.368c0.441-0.43,0.901-0.742,1.383-0.937
			c0.502-0.215,1.05-0.322,1.644-0.322C220.794,41.525,221.332,41.632,221.824,41.847z M233.271,41.509l-14.735,23.34h-1.998
			l14.735-23.34H233.271z M220.172,43.138h-0.008c-0.625,0.021-1.188,0.251-1.69,0.692c-0.574,0.523-0.861,1.147-0.861,1.875
			c0,0.03,0,0.041,0,0.03c0-0.01,0,0,0,0.031c0.021,0.738,0.272,1.347,0.753,1.828c0.502,0.502,1.117,0.753,1.844,0.753
			c0.676,0,1.281-0.256,1.814-0.768c0.481-0.502,0.732-1.106,0.752-1.813c0-0.031,0.003-0.043,0.008-0.039
			c0.005,0.005,0.008-0.002,0.008-0.023c0-0.686-0.287-1.301-0.86-1.844c-0.522-0.461-1.086-0.702-1.69-0.723h-0.008h-0.008h-0.03
			H220.172z M233.21,55.507c0.584,0.256,1.106,0.62,1.567,1.091c0.471,0.471,0.83,0.989,1.075,1.552
			c0.236,0.584,0.353,1.204,0.353,1.859c0,0.666-0.118,1.286-0.353,1.859c-0.236,0.564-0.594,1.086-1.075,1.567
			c-0.472,0.472-0.993,0.83-1.567,1.076c-0.543,0.225-1.158,0.338-1.844,0.338c-0.697,0-1.322-0.113-1.875-0.338
			c-0.584-0.246-1.106-0.605-1.567-1.076c-0.472-0.461-0.825-0.983-1.061-1.567c-0.236-0.574-0.353-1.194-0.353-1.859
			c0-0.656,0.118-1.275,0.353-1.859c0.226-0.553,0.579-1.07,1.061-1.552c0.461-0.471,0.988-0.835,1.583-1.091
			c0.563-0.236,1.183-0.353,1.859-0.353C232.011,55.154,232.625,55.271,233.21,55.507z M228.953,57.612
			c-0.615,0.604-0.922,1.403-0.922,2.397c0,0.983,0.307,1.783,0.922,2.397s1.414,0.922,2.397,0.922c0.963,0,1.762-0.307,2.397-0.922
			c0.615-0.625,0.922-1.424,0.922-2.397c0-0.963-0.308-1.762-0.922-2.397c-0.635-0.615-1.434-0.922-2.397-0.922
			C230.367,56.69,229.568,56.997,228.953,57.612z"/>
	</g>
	<g>
		<path fill="#58595B" d="M175.277,74.113h1.901v5.886h3.464v1.891h-5.366V74.113z"/>
		<path fill="#58595B" d="M181.326,81.89v-7.777h1.901v7.777H181.326z"/>
		<path fill="#58595B" d="M186.603,74.117v-0.005h0.169c1.374,0,2.521,0.466,3.299,1.144c0.73,0.702,1.091,1.629,1.091,2.752
			c0,1.123-0.362,2.047-1.092,2.743c-0.963,0.757-2.192,1.138-3.636,1.138h-2.239v-7.773H186.603z M186.767,75.999h-0.501
			l0.018,3.995h0.21c1.541,0,2.512-0.682,2.688-1.998C189.183,76.702,188.127,75.999,186.767,75.999z"/>
		<path fill="#58595B" d="M191.848,74.093h5.365v1.896h-3.373v1.062h2.591v1.896h-2.591v1.061h3.373v1.891h-5.365V74.093z"/>
		<path fill="#58595B" d="M197.9,81.89l-0.005-7.777h2.844c0.464,0,0.916,0.066,1.353,0.197c0.381,0.132,0.715,0.336,1.002,0.608
			c0.491,0.47,0.802,0.934,0.802,1.807v0.194c0,0.537-0.177,1.045-0.523,1.514c-0.248,0.332-0.455,0.502-0.819,0.668l1.869,2.789
			h-2.312l-2.311-3.039v3.039H197.9z M201.92,76.886c0-0.239-0.1-0.445-0.305-0.629c-0.202-0.166-0.634-0.259-0.989-0.259h-0.83
			v1.809h0.705v0.005h0.413C201.434,77.813,201.92,77.422,201.92,76.886z"/>
		<path fill="#58595B" d="M204.625,81.89l3.751-7.768h0.449l3.756,7.768h-2.064l-0.577-1.182h-2.681l-0.577,1.182H204.625z
			 M208.101,79.159h1.002l-0.498-1.052L208.101,79.159z"/>
		<path fill="#58595B" d="M213.679,74.093l4.553,4.093v-4.093h1.963v7.797h-0.428l-4.543-4.083v4.083h-1.958v-7.797H213.679z"/>
		<path fill="#58595B" d="M224.303,81.877c-0.866-0.141-1.617-0.504-2.26-1.085c-0.802-0.761-1.209-1.698-1.209-2.783
			c0-1.083,0.406-2.022,1.208-2.796c0.855-0.772,1.9-1.163,3.109-1.163h0.232l-0.007,0.024c0.529,0.025,1.015,0.129,1.485,0.318
			c0.518,0.217,0.958,0.51,1.333,0.879l0.122,0.119l-1.366,1.36l-0.128-0.119c-0.468-0.438-1.014-0.65-1.664-0.65
			c-0.657,0-1.201,0.201-1.659,0.614c-0.466,0.417-0.692,0.9-0.692,1.472c0,0.575,0.226,1.058,0.691,1.471
			c0.46,0.407,1.005,0.606,1.659,0.606c0.65,0,1.199-0.2,1.67-0.611l0.128-0.112l1.365,1.274l-0.12,0.113
			c-0.558,0.528-1.305,0.935-2.23,1.075c-0.042,0.984-0.489,1.825-1.029,2.24l-0.553,0.425l-1.33-1.286l0.421-0.138
			c0.028-0.01,0.227-0.161,0.496-0.45C224.157,82.473,224.255,82.191,224.303,81.877z"/>
		<path fill="#58595B" d="M228.518,81.89l3.751-7.768h0.449l3.756,7.768h-2.064l-0.577-1.182h-2.681l-0.577,1.182H228.518z
			 M231.993,79.159h1.002l-0.498-1.052L231.993,79.159z"/>
	</g>
</g>
<g>
	<circle fill="#EA2283" cx="352.668" cy="64.606" r="59.833"/>
	<path fill="#F389A6" d="M352.668,64.606L352.668,64.606L352.668,64.606l42.309-42.309c13.666,13.666,19.339,32.297,17.02,50.086
		L352.668,64.606z"/>
	<circle fill="#FFFFFF" cx="352.668" cy="64.606" r="51.229"/>
	<g>
		<path fill="#58595B" d="M342.772,53.75c-0.235,0.338-0.502,0.702-0.799,1.092c0.502,0.462,0.951,0.906,1.346,1.331
			c0.396,0.426,0.73,0.961,1.008,1.608c0.379,0.851,0.569,1.81,0.569,2.877c0,1.015-0.175,1.928-0.524,2.738
			c-0.337,0.831-0.861,1.6-1.569,2.308c-0.708,0.698-1.476,1.221-2.308,1.569c-0.83,0.338-1.743,0.508-2.738,0.508
			c-0.995,0-1.909-0.169-2.739-0.508c-0.83-0.349-1.6-0.872-2.308-1.569c-0.708-0.697-1.236-1.466-1.584-2.308
			c-0.339-0.831-0.508-1.743-0.508-2.738c0-1.046,0.185-2,0.555-2.862c0.39-0.872,0.963-1.666,1.722-2.384l0.632-0.584l-0.508-0.692
			c-0.359-0.451-0.646-0.99-0.861-1.615c-0.185-0.564-0.277-1.175-0.277-1.831c0-0.821,0.138-1.569,0.414-2.246
			c0.287-0.687,0.723-1.322,1.308-1.907c0.586-0.584,1.216-1.015,1.893-1.292c0.676-0.287,1.435-0.431,2.277-0.431
			c0.819,0,1.574,0.143,2.261,0.431c0.686,0.287,1.323,0.718,1.907,1.292c0.564,0.595,0.995,1.231,1.292,1.907
			c0.277,0.677,0.416,1.426,0.416,2.246c0,0.636-0.093,1.246-0.277,1.831C343.208,53.001,343.009,53.411,342.772,53.75z
			 M336.127,56.904c-0.504,0.216-0.939,0.523-1.308,0.923c-0.4,0.41-0.692,0.852-0.878,1.323c-0.195,0.472-0.292,0.99-0.292,1.554
			c0,0.584,0.103,1.107,0.308,1.569c0.185,0.472,0.482,0.908,0.893,1.308c0.39,0.4,0.83,0.698,1.322,0.893
			c0.462,0.195,0.985,0.292,1.57,0.292c0.553,0,1.071-0.097,1.553-0.292c0.502-0.216,0.943-0.513,1.323-0.893
			c0.41-0.39,0.717-0.831,0.923-1.323c0.205-0.502,0.308-1.03,0.308-1.584c0-0.533-0.102-1.062-0.308-1.584
			c-0.215-0.492-0.518-0.933-0.907-1.323c-0.42-0.41-0.856-0.713-1.308-0.908C338.281,56.417,337.214,56.432,336.127,56.904z
			 M337.773,53.504c0.359,0,0.717-0.072,1.076-0.216c0.318-0.123,0.626-0.328,0.924-0.615c0.277-0.277,0.487-0.585,0.631-0.923
			c0.153-0.349,0.23-0.713,0.23-1.092c0-0.369-0.077-0.733-0.23-1.092c-0.144-0.318-0.354-0.621-0.631-0.908
			c-0.278-0.267-0.58-0.472-0.909-0.615c-0.359-0.144-0.717-0.216-1.076-0.216c-0.38,0-0.745,0.072-1.093,0.216
			c-0.338,0.144-0.641,0.349-0.907,0.615c-0.287,0.287-0.498,0.59-0.631,0.908c-0.154,0.359-0.232,0.723-0.232,1.092
			c0,0.379,0.077,0.743,0.232,1.092c0.133,0.328,0.343,0.631,0.631,0.908c0.286,0.287,0.595,0.492,0.923,0.615
			c0.328,0.144,0.677,0.216,1.046,0.216L337.773,53.504z"/>
		<path fill="#58595B" d="M358.651,45.581c1.097,0.584,2.026,1.415,2.785,2.492c0.748,1.046,1.333,2.292,1.753,3.738
			c0.431,1.456,0.646,2.948,0.646,4.477c0,1.538-0.215,3.04-0.646,4.507c-0.43,1.446-1.015,2.687-1.753,3.723
			c-0.749,1.087-1.677,1.923-2.785,2.507c-1.087,0.564-2.261,0.846-3.523,0.846c-1.272,0-2.447-0.282-3.523-0.846
			c-1.088-0.574-2.015-1.41-2.785-2.507c-0.748-1.036-1.333-2.277-1.754-3.723c-0.42-1.425-0.631-2.928-0.631-4.507
			c0-1.559,0.21-3.051,0.631-4.477c0.411-1.446,0.995-2.692,1.754-3.738c0.77-1.097,1.697-1.928,2.785-2.492
			c1.045-0.564,2.22-0.846,3.523-0.846C356.421,44.735,357.595,45.017,358.651,45.581z M357.266,48.35
			c-0.646-0.349-1.363-0.523-2.153-0.523s-1.502,0.175-2.139,0.523c-0.666,0.349-1.23,0.846-1.691,1.492
			c-0.564,0.79-1.006,1.769-1.323,2.938c-0.318,1.148-0.477,2.318-0.477,3.508c0,1.21,0.159,2.379,0.477,3.507
			c0.317,1.179,0.759,2.159,1.323,2.938v0.015c0.502,0.677,1.061,1.175,1.677,1.492c0.646,0.349,1.363,0.523,2.153,0.523
			s1.507-0.175,2.153-0.523c0.637-0.328,1.195-0.825,1.677-1.492v-0.015c0.575-0.81,1.021-1.784,1.338-2.923
			c0.318-1.138,0.477-2.312,0.477-3.523c0-1.19-0.159-2.359-0.477-3.508c-0.317-1.138-0.764-2.118-1.338-2.938
			C358.472,49.196,357.913,48.699,357.266,48.35z"/>
		<path fill="#58595B" d="M371.1,44.951c0.482,0.205,0.938,0.518,1.369,0.938c0.42,0.431,0.733,0.887,0.938,1.369
			c0.205,0.472,0.308,1.01,0.308,1.615c0,0.625-0.102,1.169-0.308,1.631c-0.195,0.482-0.508,0.944-0.938,1.384
			c-0.431,0.421-0.887,0.733-1.369,0.939c-0.513,0.205-1.051,0.308-1.615,0.308c-0.584,0-1.133-0.103-1.646-0.308
			c-0.502-0.216-0.964-0.529-1.385-0.939c-0.431-0.441-0.739-0.902-0.923-1.384c-0.205-0.461-0.308-1.005-0.308-1.631
			c0-0.605,0.102-1.144,0.308-1.615c0.195-0.492,0.502-0.949,0.923-1.369c0.441-0.431,0.903-0.743,1.385-0.938
			c0.502-0.216,1.051-0.323,1.646-0.323C370.069,44.628,370.607,44.735,371.1,44.951z M382.561,44.612L367.808,67.98h-2
			l14.753-23.368H382.561z M369.447,46.243h-0.008c-0.626,0.02-1.19,0.251-1.692,0.692c-0.574,0.523-0.861,1.148-0.861,1.876
			c0,0.031,0,0.041,0,0.031c0-0.01,0,0,0,0.031c0.02,0.738,0.272,1.349,0.754,1.831c0.502,0.502,1.118,0.754,1.846,0.754
			c0.677,0,1.281-0.257,1.815-0.769c0.482-0.502,0.734-1.107,0.754-1.815c0-0.031,0.002-0.044,0.008-0.039
			c0.005,0.005,0.007-0.002,0.007-0.023c0-0.687-0.287-1.302-0.861-1.846c-0.524-0.461-1.088-0.702-1.692-0.723h-0.008h-0.007
			h-0.031H369.447z M382.499,58.626c0.584,0.257,1.108,0.621,1.569,1.093c0.473,0.472,0.831,0.989,1.077,1.553
			c0.236,0.585,0.354,1.205,0.354,1.862c0,0.667-0.118,1.287-0.354,1.862c-0.235,0.564-0.595,1.087-1.077,1.569
			c-0.471,0.472-0.994,0.831-1.569,1.077c-0.543,0.226-1.159,0.338-1.846,0.338c-0.697,0-1.323-0.113-1.877-0.338
			c-0.586-0.246-1.108-0.605-1.57-1.077c-0.471-0.461-0.825-0.985-1.061-1.569c-0.236-0.575-0.354-1.195-0.354-1.862
			c0-0.656,0.118-1.277,0.354-1.862c0.226-0.553,0.578-1.072,1.061-1.553c0.462-0.472,0.991-0.836,1.586-1.093
			c0.563-0.236,1.184-0.353,1.861-0.353C381.3,58.273,381.915,58.391,382.499,58.626z M378.238,60.735
			c-0.615,0.605-0.923,1.405-0.923,2.4c0,0.985,0.308,1.784,0.923,2.4c0.615,0.616,1.416,0.923,2.4,0.923
			c0.964,0,1.764-0.308,2.4-0.923c0.615-0.625,0.923-1.425,0.923-2.4c0-0.964-0.308-1.764-0.923-2.4
			c-0.637-0.616-1.436-0.923-2.4-0.923C379.654,59.811,378.853,60.119,378.238,60.735z"/>
	</g>
	<g>
		<path fill="#58595B" d="M321.668,80.594h5.386v1.903h-3.386v1.065h2.601v1.904h-2.601v1.065h3.386v1.898h-5.386V80.594z"/>
		<path fill="#58595B" d="M329.377,85.95c0,0.288,0.344,0.57,0.717,0.619l0.002,0.001h0.101c0.399,0,0.825-0.297,0.825-0.597
			c0-0.517-0.844-0.597-1.537-0.802c-1.084-0.321-1.995-1.106-1.995-2.203c0-1.332,1.148-2.409,2.714-2.409
			c1.428,0,2.512,0.952,2.684,2.19l0.021,0.152l-2.006,0.403c0-0.48-0.196-0.827-0.689-0.827c-0.376,0-0.697,0.269-0.697,0.597
			c0,0.515,0.798,0.682,1.457,0.849c1.114,0.28,2.059,1.037,2.059,2.16c0,1.341-1.27,2.411-2.824,2.411
			c-1.429,0-2.614-0.939-2.805-2.188l-0.024-0.153l1.995-0.407V85.95z"/>
		<path fill="#58595B" d="M333.703,88.421v-7.808h3.081c0.879,0,1.641,0.278,2.227,0.824c0.568,0.549,0.859,1.223,0.859,1.998
			c0,0.78-0.291,1.453-0.86,1.989c-0.597,0.545-1.378,0.823-2.271,0.823h-1.127v2.175H333.703z M336.784,82.507h-1.102v1.846
			l1.102,0.004c0.561,0,1.106-0.386,1.106-0.923C337.89,82.898,337.341,82.507,336.784,82.507z"/>
		<path fill="#58595B" d="M340.441,88.421v-7.846h1.912v7.846H340.441z M342.032,77.565l1.207,0.95l-1.843,1.72l-0.81-0.617
			L342.032,77.565z"/>
		<path fill="#58595B" d="M343.722,88.421l-0.005-7.808h2.854c0.466,0,0.92,0.067,1.36,0.198c0.381,0.134,0.717,0.337,1.006,0.611
			c0.493,0.472,0.805,0.937,0.805,1.814v0.195c0,0.539-0.178,1.049-0.525,1.519c-0.249,0.334-0.457,0.505-0.823,0.671l1.877,2.8
			h-2.321l-2.319-3.05v3.05H343.722z M347.758,83.398c0-0.241-0.101-0.447-0.306-0.631c-0.203-0.167-0.637-0.26-0.993-0.26h-0.833
			v1.817h0.708v0.005h0.414C347.27,84.328,347.758,83.936,347.758,83.398z"/>
		<path fill="#58595B" d="M350.744,88.421v-7.808h1.909v7.808H350.744z"/>
		<path fill="#58595B" d="M353.326,80.613h6.093v1.894h-1.991l0.072,5.914h-2.156l-0.023-5.914h-1.996V80.613z"/>
		<path fill="#58595B" d="M363.198,80.55c1.196,0,2.088,0.393,2.942,1.167c0.809,0.774,1.219,1.717,1.219,2.805
			c0,1.09-0.41,2.031-1.219,2.8c-0.852,0.765-1.743,1.153-2.942,1.153c-1.202-0.004-2.094-0.39-2.942-1.153
			c-0.806-0.772-1.214-1.713-1.214-2.799c0-1.084,0.407-2.026,1.213-2.804C361.11,80.943,362.002,80.55,363.198,80.55z
			 M363.198,82.473c-0.657,0-1.052,0.197-1.505,0.597c-0.462,0.409-0.686,0.882-0.686,1.442c0,0.566,0.226,1.039,0.685,1.441
			c0.457,0.398,0.853,0.594,1.506,0.594c0.641,0,1.037-0.195,1.501-0.594c0.463-0.399,0.689-0.871,0.689-1.44
			c0-0.563-0.226-1.036-0.69-1.441C364.237,82.669,363.843,82.473,363.198,82.473z"/>
		<path fill="#58595B" d="M373.34,80.618v-0.005h0.17c1.379,0,2.531,0.467,3.311,1.148c0.733,0.705,1.096,1.635,1.096,2.763
			c0,1.128-0.363,2.055-1.096,2.754c-0.967,0.76-2.201,1.143-3.651,1.143h-2.247v-7.803H373.34z M373.505,82.507h-0.502l0.018,4.011
			h0.21c1.548,0,2.521-0.685,2.698-2.005C375.929,83.212,374.87,82.507,373.505,82.507z"/>
		<path fill="#58595B" d="M378.584,80.594h5.385v1.903h-3.386v1.065h2.602v1.904h-2.602v1.065h3.386v1.898h-5.385V80.594z"/>
		<path fill="#58595B" d="M333.297,92.478h5.386v1.904h-3.386v1.065h2.601v1.904h-2.601v1.065h3.386v1.898h-5.386V92.478z"/>
		<path fill="#58595B" d="M343.349,92.434c1.197,0,2.234,0.393,3.086,1.169c0.824,0.782,1.233,1.725,1.233,2.808
			c0,0.879-0.27,1.666-0.799,2.342c0.257,0.063,0.549,0.104,0.893,0.124l0.172,0.01l-0.153,1.795l-0.166-0.011
			c-1.048-0.068-1.846-0.273-2.51-0.65c-0.533,0.223-1.114,0.331-1.755,0.331c-1.204,0-2.24-0.388-3.075-1.153
			c-0.805-0.765-1.213-1.705-1.213-2.795c0-1.084,0.407-2.026,1.213-2.803C341.117,92.827,342.15,92.434,343.349,92.434z
			 M342.505,96.557c1.16,0.084,1.78,0.515,2.53,1.173c0.05,0.043,0.112,0.102,0.175,0.164c0.317-0.387,0.471-0.821,0.471-1.333
			c0-0.609-0.224-1.121-0.684-1.555c-0.466-0.436-1.007-0.648-1.647-0.648c-0.651,0-1.188,0.212-1.64,0.647
			c-0.461,0.436-0.684,0.947-0.684,1.556c0,0.621,0.223,1.131,0.683,1.561c0.436,0.419,0.952,0.629,1.559,0.647
			c-0.261-0.191-0.492-0.308-0.886-0.334l-0.176-0.012l0.118-1.879L342.505,96.557z"/>
		<path fill="#58595B" d="M353.673,97.126v-4.628h1.918v4.695c0,0.876-0.328,1.635-0.975,2.256c-0.65,0.616-1.499,0.929-2.515,0.929
			c-1.027,0-1.881-0.312-2.529-0.929c-0.646-0.62-0.974-1.38-0.974-2.256v-4.695h1.917v4.628c0,0.362,0.152,0.668,0.466,0.936
			c0.314,0.262,0.677,0.388,1.114,0.388C352.885,98.45,353.673,97.887,353.673,97.126z"/>
		<path fill="#58595B" d="M356.547,100.305v-7.808h1.909v7.808H356.547z"/>
		<path fill="#58595B" d="M359.42,100.305v-7.808h3.08c0.879,0,1.641,0.278,2.227,0.824c0.569,0.549,0.859,1.223,0.859,1.998
			c0,0.78-0.291,1.453-0.86,1.989c-0.597,0.545-1.378,0.823-2.271,0.823h-1.127v2.175H359.42z M362.499,94.391h-1.101v1.847
			l1.101,0.004c0.562,0,1.107-0.386,1.107-0.923C363.606,94.782,363.057,94.391,362.499,94.391z"/>
		<path fill="#58595B" d="M364.356,100.305l3.765-7.798h0.451l3.771,7.798h-2.072l-0.578-1.186h-2.69l-0.58,1.186H364.356z
			 M367.845,97.564h1.005l-0.499-1.056L367.845,97.564z"/>
	</g>
</g>
<g>
	<circle fill="#EA2283" cx="502.321" cy="65.009" r="59.916"/>
	<path fill="#F389A6" d="M502.321,65.009L502.321,65.009L502.321,65.009l42.367-42.367c13.685,13.685,19.366,32.342,17.044,50.155
		L502.321,65.009z"/>
	<circle fill="#FFFFFF" cx="502.321" cy="65.009" r="51.3"/>
	<g>
		<path fill="#58595B" d="M465.399,80.229c1.204,0.055,2.166,0.562,2.827,1.2l0.124,0.12l-1.372,1.36l-0.128-0.118
			c-0.474-0.436-1.023-0.648-1.672-0.648c-0.66,0-1.207,0.196-1.665,0.597c-0.467,0.409-0.695,0.882-0.695,1.442
			c0,0.567,0.227,1.039,0.694,1.441c0.463,0.399,1.009,0.594,1.666,0.594c0.66,0,1.21-0.213,1.676-0.648l0.128-0.12l1.371,1.359
			l-0.121,0.12c-0.374,0.371-0.815,0.665-1.339,0.883c-0.532,0.213-1.107,0.319-1.721,0.319c-1.214-0.004-2.261-0.39-3.12-1.153
			c-0.807-0.772-1.214-1.713-1.214-2.799c0-1.084,0.407-2.026,1.214-2.804c0.865-0.775,1.913-1.167,3.121-1.167h0.233
			L465.399,80.229z"/>
		<path fill="#58595B" d="M472.299,80.204c1.196,0,2.089,0.393,2.942,1.167c0.809,0.774,1.219,1.717,1.219,2.805
			c0,1.09-0.41,2.031-1.219,2.8c-0.851,0.765-1.743,1.153-2.942,1.153c-1.202-0.004-2.094-0.39-2.942-1.153
			c-0.806-0.772-1.214-1.713-1.214-2.799c0-1.084,0.407-2.026,1.213-2.804C470.212,80.596,471.103,80.204,472.299,80.204z
			 M472.299,82.127c-0.656,0-1.052,0.197-1.505,0.597c-0.461,0.409-0.686,0.882-0.686,1.442c0,0.566,0.225,1.039,0.685,1.441
			c0.457,0.398,0.853,0.594,1.505,0.594c0.642,0,1.037-0.195,1.501-0.594c0.463-0.399,0.689-0.871,0.689-1.44
			c0-0.563-0.226-1.036-0.691-1.441C473.339,82.323,472.944,82.127,472.299,82.127z"/>
		<path fill="#58595B" d="M477.528,80.248l3.774,4.962l3.769-4.962h0.391v7.827h-1.908v-2.882l-2.252,2.875l-2.258-2.877v2.883
			h-1.908v-7.827H477.528z"/>
		<path fill="#58595B" d="M491.505,84.895v-4.628h1.918v4.695c0,0.876-0.328,1.635-0.975,2.256c-0.65,0.616-1.499,0.929-2.516,0.929
			c-1.027,0-1.881-0.312-2.528-0.929c-0.647-0.621-0.974-1.379-0.974-2.256v-4.695h1.917v4.628c0,0.362,0.151,0.668,0.466,0.936
			c0.313,0.262,0.676,0.388,1.113,0.388C490.717,86.219,491.505,85.657,491.505,84.895z"/>
		<path fill="#58595B" d="M494.803,80.248l4.571,4.109v-4.109h1.971v7.827h-0.429l-4.56-4.099v4.099h-1.966v-7.827H494.803z"/>
		<path fill="#58595B" d="M502.313,88.074v-7.808h1.908v7.808H502.313z"/>
		<path fill="#58595B" d="M509.46,80.229c1.205,0.055,2.167,0.562,2.828,1.2l0.124,0.12l-1.372,1.36l-0.128-0.118
			c-0.474-0.436-1.023-0.648-1.672-0.648c-0.66,0-1.206,0.196-1.665,0.597c-0.467,0.409-0.695,0.882-0.695,1.442
			c0,0.567,0.227,1.039,0.694,1.441c0.463,0.399,1.009,0.594,1.666,0.594c0.66,0,1.21-0.213,1.676-0.648l0.128-0.12l1.371,1.359
			l-0.121,0.12c-0.374,0.371-0.815,0.665-1.339,0.883c-0.532,0.213-1.107,0.319-1.721,0.319c-1.214-0.004-2.261-0.39-3.12-1.153
			c-0.807-0.772-1.214-1.713-1.214-2.799c0-1.084,0.407-2.026,1.214-2.804c0.865-0.775,1.913-1.167,3.121-1.167h0.233L509.46,80.229
			z"/>
		<path fill="#58595B" d="M512.646,88.074l3.766-7.798h0.451l3.77,7.798h-2.072l-0.579-1.186h-2.69l-0.579,1.186H512.646z
			 M516.135,85.333h1.005l-0.499-1.056L516.135,85.333z"/>
		<path fill="#58595B" d="M523.728,88.061c-0.871-0.141-1.624-0.506-2.268-1.089c-0.805-0.764-1.214-1.704-1.214-2.794
			c0-1.087,0.408-2.03,1.213-2.808c0.858-0.774,1.907-1.167,3.121-1.167h0.233l-0.007,0.025c0.531,0.024,1.02,0.129,1.49,0.318
			c0.521,0.218,0.961,0.512,1.339,0.882l0.122,0.119l-1.371,1.365l-0.129-0.12c-0.47-0.439-1.018-0.653-1.671-0.653
			c-0.66,0-1.205,0.202-1.665,0.616c-0.467,0.419-0.695,0.904-0.695,1.477c0,0.577,0.228,1.062,0.694,1.477
			c0.462,0.408,1.009,0.607,1.666,0.607c0.653,0,1.204-0.201,1.677-0.613l0.128-0.112l1.37,1.28l-0.12,0.113
			c-0.56,0.53-1.311,0.939-2.239,1.079c-0.042,0.988-0.49,1.832-1.033,2.248l-0.555,0.427l-1.335-1.292l0.423-0.138
			c0.028-0.01,0.227-0.162,0.498-0.452C523.581,88.659,523.68,88.377,523.728,88.061z"/>
		<path fill="#58595B" d="M534.129,79.665l0.062,0.062l-0.095,0.119c-0.232,0.288-0.533,0.454-0.875,0.413
			c-0.282-0.034-0.742-0.163-1.303-0.343l3.969,8.159h-2.071l-0.579-1.186h-2.691l-0.579,1.186H527.9l3.971-8.173
			c-0.542-0.169-0.884-0.201-0.993-0.166c-0.158,0.049-0.388,0.198-0.666,0.457l-0.301,0.287l-0.037-1.336
			c0.256-0.278,0.564-0.489,0.865-0.575c0.335-0.096,0.815,0.025,1.48,0.279c0.606,0.236,0.97,0.277,1.062,0.242
			c0.161-0.06,0.353-0.191,0.563-0.403l0.299-0.328L534.129,79.665z M531.388,85.333h1.005l-0.499-1.056L531.388,85.333z"/>
		<path fill="#58595B" d="M539.648,80.204c1.196,0,2.089,0.393,2.942,1.167c0.809,0.774,1.219,1.717,1.219,2.805
			c0,1.09-0.41,2.031-1.219,2.8c-0.851,0.765-1.743,1.153-2.942,1.153c-1.202-0.004-2.094-0.39-2.942-1.153
			c-0.806-0.772-1.214-1.713-1.214-2.799c0-1.084,0.407-2.026,1.213-2.804C537.56,80.596,538.452,80.204,539.648,80.204z
			 M539.648,82.127c-0.656,0-1.052,0.197-1.505,0.597c-0.461,0.409-0.686,0.882-0.686,1.442c0,0.566,0.225,1.039,0.685,1.441
			c0.457,0.398,0.853,0.594,1.505,0.594c0.642,0,1.037-0.195,1.501-0.594c0.463-0.399,0.689-0.871,0.689-1.44
			c0-0.563-0.226-1.036-0.691-1.441C540.688,82.323,540.293,82.127,539.648,82.127z"/>
	</g>
	<g>
		<path fill="#58595B" d="M492.41,54.141c-0.236,0.338-0.503,0.703-0.8,1.093c0.503,0.462,0.953,0.906,1.347,1.333
			c0.395,0.426,0.732,0.963,1.009,1.609c0.38,0.853,0.57,1.812,0.57,2.881c0,1.017-0.175,1.931-0.524,2.742
			c-0.339,0.831-0.862,1.602-1.571,2.31c-0.708,0.698-1.479,1.222-2.31,1.571c-0.832,0.338-1.746,0.508-2.742,0.508
			s-1.91-0.17-2.742-0.508c-0.832-0.349-1.602-0.873-2.311-1.571s-1.237-1.469-1.586-2.31c-0.339-0.832-0.508-1.746-0.508-2.742
			c0-1.048,0.185-2.002,0.555-2.865c0.39-0.872,0.965-1.669,1.725-2.387l0.631-0.586l-0.508-0.693
			c-0.359-0.452-0.647-0.991-0.862-1.617c-0.185-0.565-0.277-1.176-0.277-1.833c0-0.821,0.138-1.571,0.416-2.249
			c0.287-0.688,0.724-1.324,1.309-1.91c0.585-0.586,1.217-1.017,1.894-1.294c0.678-0.287,1.438-0.431,2.28-0.431
			c0.821,0,1.576,0.144,2.264,0.431c0.688,0.287,1.324,0.719,1.91,1.294c0.565,0.596,0.996,1.232,1.294,1.91
			c0.277,0.678,0.416,1.428,0.416,2.249c0,0.637-0.093,1.248-0.277,1.833C492.846,53.391,492.646,53.802,492.41,54.141z
			 M485.757,57.299c-0.504,0.216-0.94,0.524-1.309,0.924c-0.401,0.411-0.693,0.852-0.878,1.325
			c-0.195,0.472-0.292,0.991-0.292,1.555c0,0.586,0.102,1.109,0.308,1.571c0.185,0.473,0.483,0.909,0.894,1.309
			c0.39,0.4,0.831,0.698,1.324,0.893c0.462,0.195,0.986,0.293,1.571,0.293c0.555,0,1.073-0.097,1.556-0.293
			c0.503-0.216,0.944-0.513,1.324-0.893c0.411-0.39,0.719-0.832,0.925-1.325c0.205-0.503,0.308-1.032,0.308-1.586
			c0-0.534-0.103-1.063-0.308-1.587c-0.216-0.493-0.519-0.934-0.909-1.325c-0.421-0.41-0.857-0.713-1.309-0.909
			C487.913,56.811,486.845,56.827,485.757,57.299z M487.405,53.895c0.359,0,0.719-0.072,1.078-0.216
			c0.318-0.124,0.626-0.329,0.925-0.616c0.277-0.277,0.488-0.585,0.631-0.924c0.154-0.349,0.231-0.714,0.231-1.094
			c0-0.369-0.077-0.734-0.231-1.093c-0.144-0.318-0.354-0.621-0.631-0.909c-0.277-0.267-0.58-0.472-0.909-0.616
			c-0.359-0.144-0.719-0.216-1.078-0.216c-0.38,0-0.745,0.072-1.094,0.216c-0.338,0.144-0.642,0.349-0.909,0.616
			c-0.287,0.288-0.498,0.591-0.632,0.909c-0.154,0.359-0.231,0.724-0.231,1.093c0,0.38,0.077,0.745,0.231,1.094
			c0.134,0.328,0.344,0.631,0.632,0.909c0.287,0.287,0.596,0.493,0.924,0.616c0.328,0.144,0.678,0.216,1.048,0.216L487.405,53.895z"
			/>
		<path fill="#58595B" d="M508.311,45.963c1.099,0.586,2.028,1.417,2.788,2.495c0.749,1.048,1.335,2.295,1.756,3.743
			c0.431,1.458,0.647,2.952,0.647,4.482c0,1.54-0.216,3.045-0.647,4.513c-0.431,1.448-1.017,2.691-1.756,3.727
			c-0.749,1.088-1.679,1.925-2.788,2.511c-1.089,0.565-2.264,0.847-3.527,0.847c-1.274,0-2.449-0.282-3.527-0.847
			c-1.088-0.575-2.018-1.412-2.788-2.511c-0.749-1.037-1.335-2.28-1.756-3.727c-0.421-1.427-0.631-2.932-0.631-4.513
			c0-1.561,0.21-3.055,0.631-4.482c0.411-1.448,0.996-2.695,1.756-3.743c0.77-1.099,1.7-1.931,2.788-2.495
			c1.048-0.565,2.223-0.847,3.527-0.847C506.078,45.115,507.253,45.398,508.311,45.963z M506.925,48.735
			c-0.647-0.349-1.366-0.524-2.156-0.524c-0.791,0-1.505,0.175-2.141,0.524c-0.667,0.349-1.232,0.847-1.694,1.494
			c-0.565,0.79-1.006,1.771-1.324,2.942c-0.318,1.15-0.478,2.321-0.478,3.511c0,1.212,0.16,2.382,0.478,3.512
			c0.318,1.181,0.759,2.162,1.324,2.942v0.015c0.503,0.678,1.063,1.176,1.679,1.494c0.647,0.349,1.366,0.524,2.157,0.524
			c0.79,0,1.51-0.175,2.156-0.524c0.637-0.328,1.196-0.827,1.679-1.494v-0.015c0.575-0.811,1.022-1.786,1.34-2.926
			c0.318-1.14,0.477-2.315,0.477-3.527c0-1.191-0.159-2.362-0.477-3.511c-0.318-1.14-0.765-2.121-1.34-2.942
			C508.132,49.582,507.572,49.084,506.925,48.735z"/>
		<path fill="#58595B" d="M520.778,45.331c0.482,0.205,0.939,0.519,1.371,0.94c0.421,0.431,0.734,0.888,0.939,1.371
			c0.205,0.473,0.308,1.011,0.308,1.618c0,0.626-0.103,1.17-0.308,1.632c-0.195,0.483-0.508,0.945-0.939,1.386
			c-0.431,0.421-0.888,0.735-1.371,0.939c-0.514,0.205-1.053,0.308-1.618,0.308c-0.585,0-1.135-0.103-1.648-0.308
			c-0.503-0.216-0.966-0.529-1.387-0.939c-0.431-0.441-0.739-0.903-0.924-1.386c-0.206-0.462-0.308-1.007-0.308-1.632
			c0-0.606,0.102-1.145,0.308-1.618c0.195-0.493,0.504-0.95,0.924-1.371c0.442-0.432,0.904-0.745,1.387-0.94
			c0.503-0.216,1.052-0.323,1.648-0.323C519.746,45.008,520.286,45.115,520.778,45.331z M532.253,44.992l-14.771,23.396h-2.002
			l14.771-23.396H532.253z M519.122,46.625h-0.008c-0.626,0.021-1.191,0.252-1.694,0.693c-0.575,0.524-0.862,1.15-0.862,1.879
			c0,0.031,0,0.041,0,0.031c0-0.011,0,0,0,0.031c0.02,0.739,0.272,1.35,0.755,1.833c0.503,0.503,1.119,0.755,1.848,0.755
			c0.678,0,1.284-0.257,1.818-0.77c0.483-0.503,0.734-1.109,0.755-1.817c0-0.031,0.002-0.044,0.008-0.039
			c0.005,0.005,0.008-0.003,0.008-0.023c0-0.688-0.287-1.304-0.863-1.849c-0.524-0.462-1.089-0.703-1.694-0.724h-0.008h-0.008
			h-0.031H519.122z M532.191,59.024c0.586,0.257,1.109,0.621,1.571,1.093c0.472,0.473,0.832,0.991,1.078,1.556
			c0.236,0.586,0.354,1.207,0.354,1.864c0,0.667-0.118,1.289-0.354,1.863c-0.236,0.565-0.596,1.088-1.078,1.571
			c-0.472,0.472-0.996,0.831-1.571,1.078c-0.544,0.226-1.16,0.339-1.848,0.339c-0.698,0-1.325-0.113-1.88-0.339
			c-0.585-0.246-1.109-0.606-1.571-1.078c-0.473-0.462-0.827-0.986-1.063-1.571c-0.236-0.575-0.354-1.196-0.354-1.863
			c0-0.657,0.118-1.279,0.354-1.864c0.226-0.555,0.58-1.073,1.063-1.556c0.462-0.472,0.991-0.837,1.586-1.093
			c0.565-0.236,1.186-0.355,1.864-0.355C530.99,58.669,531.606,58.787,532.191,59.024z M527.925,61.134
			c-0.616,0.606-0.925,1.407-0.925,2.403c0,0.986,0.308,1.786,0.925,2.403c0.616,0.616,1.417,0.924,2.403,0.924
			c0.965,0,1.766-0.308,2.403-0.924c0.616-0.626,0.924-1.428,0.924-2.403c0-0.966-0.308-1.767-0.924-2.403
			c-0.637-0.616-1.438-0.924-2.403-0.924C529.342,60.21,528.541,60.518,527.925,61.134z"/>
	</g>
</g>
</svg>
